<svg width="120" height="120" viewBox="0 0 120 120" fill="none" xmlns="http://www.w3.org/2000/svg">
<rect x="1" y="1" width="118" height="118" rx="59" fill="#F0F9F5"/>
<rect x="1" y="1" width="118" height="118" rx="59" stroke="#25755A" stroke-width="2"/>
<path d="M35 85C36.2083 81.9167 37.0108 78.74 37.4075 75.47C37.8042 72.2 38.0433 68.9183 38.125 65.625C36.5 65 35.1567 63.9583 34.095 62.5C33.0333 61.0417 32.5017 59.375 32.5 57.5V52.5C37.2917 50.9167 42.1775 48.5 47.1575 45.25C52.1375 42 56.4183 38.5833 60 35C63.5833 38.5833 67.865 42 72.845 45.25C77.825 48.5 82.71 50.9167 87.5 52.5V57.5C87.5 59.375 86.9683 61.0417 85.905 62.5C84.8417 63.9583 83.4983 65 81.875 65.625C81.9583 68.9167 82.1983 72.1983 82.595 75.47C82.9917 78.7417 83.7933 81.9183 85 85H35ZM44.75 52.5H75.25C72 50.6667 69.0733 48.7817 66.47 46.845C63.8667 44.9083 61.71 43.21 60 41.75C58.2917 43.2083 56.135 44.9067 53.53 46.845C50.925 48.7833 47.9983 50.6683 44.75 52.5ZM66.25 61.25C67.2917 61.25 68.1775 60.8858 68.9075 60.1575C69.6375 59.4292 70.0017 58.5433 70 57.5H62.5C62.5 58.5417 62.865 59.4275 63.595 60.1575C64.325 60.8875 65.21 61.2517 66.25 61.25ZM53.75 61.25C54.7917 61.25 55.6775 60.8858 56.4075 60.1575C57.1375 59.4292 57.5017 58.5433 57.5 57.5H50C50 58.5417 50.365 59.4275 51.095 60.1575C51.825 60.8875 52.71 61.2517 53.75 61.25ZM41.25 61.25C42.2917 61.25 43.1775 60.8858 43.9075 60.1575C44.6375 59.4292 45.0017 58.5433 45 57.5H37.5C37.5 58.5417 37.865 59.4275 38.595 60.1575C39.325 60.8875 40.21 61.2517 41.25 61.25ZM41.625 80H48.3125C48.6875 77.5 48.9792 75.0208 49.1875 72.5625C49.3958 70.1042 49.5625 67.625 49.6875 65.125C49.3125 64.9167 48.9375 64.6975 48.5625 64.4675C48.1875 64.2375 47.8333 63.9567 47.5 63.625C46.875 64.25 46.1983 64.7608 45.47 65.1575C44.7417 65.5542 43.96 65.8558 43.125 66.0625C43.0417 68.4375 42.8958 70.7817 42.6875 73.095C42.4792 75.4083 42.125 77.71 41.625 80ZM53.375 80H66.625C66.2917 77.7083 66.0317 75.4167 65.845 73.125C65.6583 70.8333 65.5017 68.5208 65.375 66.1875C64.2917 66.1042 63.3025 65.8442 62.4075 65.4075C61.5125 64.9708 60.71 64.3975 60 63.6875C59.2917 64.3958 58.4692 64.9692 57.5325 65.4075C56.5958 65.8458 55.6267 66.1058 54.625 66.1875C54.5 68.5208 54.3442 70.8333 54.1575 73.125C53.9708 75.4167 53.71 77.7083 53.375 80ZM71.6875 80H78.375C77.875 77.7083 77.5208 75.4067 77.3125 73.095C77.1042 70.7833 76.9583 68.4392 76.875 66.0625C76.0417 65.8542 75.25 65.5517 74.5 65.155C73.75 64.7583 73.0833 64.2483 72.5 63.625C72.1667 63.9583 71.8125 64.24 71.4375 64.47C71.0625 64.7 70.6875 64.9183 70.3125 65.125C70.4375 67.625 70.615 70.1042 70.845 72.5625C71.075 75.0208 71.3558 77.5 71.6875 80ZM78.75 61.25C79.7917 61.25 80.6775 60.8858 81.4075 60.1575C82.1375 59.4292 82.5017 58.5433 82.5 57.5H75C75 58.5417 75.365 59.4275 76.095 60.1575C76.825 60.8875 77.71 61.2517 78.75 61.25Z" fill="#25755A"/>
</svg>
