<svg width="120" height="120" viewBox="0 0 120 120" fill="none" xmlns="http://www.w3.org/2000/svg">
<rect x="1" y="1" width="118" height="118" rx="59" fill="#F0F9F5"/>
<rect x="1" y="1" width="118" height="118" rx="59" stroke="#25755A" stroke-width="2"/>
<path d="M52.5 41.9125V80H57.5V67.5H62.5V80H67.5V41.915C65.2022 40.6526 62.6217 39.9937 60 40C57.2775 40 54.725 40.6925 52.5 41.9125ZM72.5 45.9525V55.2525C74.1277 53.5872 76.0722 52.2646 78.219 51.3625C80.3658 50.4604 82.6714 49.9972 85 50H87.5V85H32.5V50H35C39.8975 50 44.325 52.01 47.5 55.2525V45.9525L47.4175 46.0275L43.97 42.4075L45.78 40.6825C46.6567 39.8491 47.6033 39.0958 48.62 38.4225C51.9922 36.1831 55.952 34.9922 60 35C65.2978 34.9921 70.3941 37.0306 74.225 40.69L76.035 42.415L72.585 46.035L72.5 45.9525ZM47.5 67.5C47.5006 64.6183 46.5055 61.825 44.6833 59.5927C42.861 57.3604 40.3234 55.8263 37.5 55.25V80H47.5V67.5ZM72.5 80H82.5V55.25C79.6766 55.8263 77.139 57.3604 75.3167 59.5927C73.4945 61.825 72.4994 64.6183 72.5 67.5V80ZM57.5 47.495H62.51V52.505H57.5V47.495Z" fill="#25755A"/>
</svg>
