<svg width="120" height="120" viewBox="0 0 120 120" fill="none" xmlns="http://www.w3.org/2000/svg">
<rect x="1" y="1" width="118" height="118" rx="59" fill="#F0F9F5"/>
<rect x="1" y="1" width="118" height="118" rx="59" stroke="#25755A" stroke-width="2"/>
<g clip-path="url(#clip0_97_329)">
<path d="M88.1011 84.306L84.0001 72H79.5001L81.9991 84H38.0011L40.5001 72H36.0001L31.8961 84.306C30.8551 87.438 32.7001 90 36.0001 90H84.0001C87.3001 90 89.1451 87.438 88.1011 84.306ZM75.0001 45C75.0001 41.0218 73.4198 37.2064 70.6067 34.3934C67.7937 31.5804 63.9784 30 60.0001 30C56.0219 30 52.2066 31.5804 49.3935 34.3934C46.5805 37.2064 45.0001 41.0218 45.0001 45C45.0001 59.325 60.0001 75 60.0001 75C60.0001 75 75.0001 59.325 75.0001 45ZM51.9001 45.18C51.9009 43.0323 52.7546 40.9728 54.2736 39.4544C55.7926 37.936 57.8524 37.083 60.0001 37.083C62.148 37.083 64.2078 37.9362 65.7266 39.455C67.2454 40.9738 68.0986 43.0336 68.0986 45.1815C68.0986 47.3294 67.2454 49.3892 65.7266 50.908C64.2078 52.4268 62.148 53.28 60.0001 53.28C57.8519 53.28 55.7916 52.4266 54.2725 50.9076C52.7535 49.3885 51.9001 47.3283 51.9001 45.18Z" fill="#25755A"/>
</g>
<defs>
<clipPath id="clip0_97_329">
<rect width="60" height="60" fill="white" transform="translate(30 30)"/>
</clipPath>
</defs>
</svg>
